name rise49.5252peak65.1548fall88.8305.mot
datacolumns 19
datarows 14
range 16.07826900000000 16.09993300000000
endheader
time	ground_force1_vx	ground_force1_vy	ground_force1_vz	ground_force1_px	ground_force1_py	ground_force1_pz	ground_force2_vx	ground_force2_vy	ground_force2_vz	ground_force2_px	ground_force2_py	ground_force2_pz	ground_torque1_x	ground_torque1_y	ground_torque1_z	ground_torque2_x	ground_torque2_y	ground_torque2_z	
16.07826900000000	-53.30825000000000	813.86860600000000	55.14703300000000	0.20323400000000	0.00000000000000	0.11083300000000	-4.90547200000000	16.05940300000000	3.43637600000000	0.00000000000000	0.00000000000000	0.00000000000000	0.00000000000000	33.10619200000000	0.00000000000000	0.00000000000000	1.39341100000000	0.00000000000000	
16.07993200000000	-53.30312900000000	810.87071200000003	55.09819800000000	0.20280100000000	0.00000000000000	0.11080600000000	-6.19961300000000	21.47964500000000	4.39451400000000	0.00000000000000	0.00000000000000	0.00000000000000	0.00000000000000	32.96581800000000	0.00000000000000	0.00000000000000	1.78533600000000	0.00000000000000	
16.08160300000000	-53.30724600000000	807.72169199999996	55.02546200000000	0.20235700000000	0.00000000000000	0.11077800000000	-7.51359800000000	27.40083900000000	5.38492200000000	0.45122800000000	0.00000000000000	-0.05685100000000	0.00000000000000	32.81966600000000	0.00000000000000	0.00000000000000	4.19435900000000	0.00000000000000	
16.08326800000000	-53.32150100000000	804.42348600000003	54.92848200000000	0.20190300000000	0.00000000000000	0.11075000000000	-8.79870300000000	33.70564900000000	6.37497700000000	0.45504000000000	0.00000000000000	-0.05773800000000	0.00000000000000	32.66788200000000	0.00000000000000	0.00000000000000	4.99223700000000	0.00000000000000	
16.08493200000000	-53.34674400000000	800.97812499999998	54.80696200000000	0.20143700000000	0.00000000000000	0.11072200000000	-10.00724800000000	40.26947200000000	7.33226000000000	0.45819600000000	0.00000000000000	-0.05857200000000	0.00000000000000	32.51061600000000	0.00000000000000	0.00000000000000	5.76892200000000	0.00000000000000	
16.08660100000000	-53.38377400000000	797.38771699999995	54.66065200000000	0.20095900000000	0.00000000000000	0.11069400000000	-11.09606200000000	46.97079200000000	8.22694800000000	0.46081200000000	0.00000000000000	-0.05935800000000	0.00000000000000	32.34802500000000	0.00000000000000	0.00000000000000	6.50033100000000	0.00000000000000	
16.08826300000000	-53.43332900000000	793.65443400000004	54.48935100000000	0.20046800000000	0.00000000000000	0.11066500000000	-12.02931600000000	53.70041000000000	9.03380500000000	0.46298200000000	0.00000000000000	-0.06010300000000	0.00000000000000	32.18027400000000	0.00000000000000	0.00000000000000	7.16606200000000	0.00000000000000	
16.08993900000000	-53.49608800000000	789.78050699999994	54.29290300000000	0.19996300000000	0.00000000000000	0.11063600000000	-12.78043500000000	60.36855000000000	9.73356800000000	0.46478100000000	0.00000000000000	-0.06081000000000	0.00000000000000	32.00752900000000	0.00000000000000	0.00000000000000	7.75052000000000	0.00000000000000	
16.09160100000000	-53.57266400000000	785.76820899999996	54.07120400000000	0.19944500000000	0.00000000000000	0.11060600000000	-13.33299800000000	66.90935700000000	10.31366000000000	0.46627000000000	0.00000000000000	-0.06148400000000	0.00000000000000	31.82996300000000	0.00000000000000	0.00000000000000	8.24349300000000	0.00000000000000	
16.09326800000000	-53.66360300000000	781.61984800000005	53.82419400000000	0.19891200000000	0.00000000000000	0.11057600000000	-13.68067700000000	73.28272100000000	10.76825000000000	0.46750100000000	0.00000000000000	-0.06212700000000	0.00000000000000	31.64775100000000	0.00000000000000	0.00000000000000	8.64019200000000	0.00000000000000	
16.09493800000000	-53.76937600000000	777.33775800000001	53.55186200000000	0.19836400000000	0.00000000000000	0.11054500000000	-13.82635200000000	79.47368299999999	11.09774500000000	0.46851600000000	0.00000000000000	-0.06274200000000	0.00000000000000	31.46107100000000	0.00000000000000	0.00000000000000	8.94084600000000	0.00000000000000	
16.09660300000000	-53.89038200000000	772.92428399999994	53.25424500000000	0.19780100000000	0.00000000000000	0.11051300000000	-13.78063100000000	85.48985800000000	11.30786200000000	0.46935100000000	0.00000000000000	-0.06333200000000	0.00000000000000	31.27010400000000	0.00000000000000	0.00000000000000	9.14993800000000	0.00000000000000	
16.09826400000000	-54.02693900000000	768.38178100000005	52.93142400000000	0.19722200000000	0.00000000000000	0.11048000000000	-13.55997600000000	91.35744300000000	11.40842100000000	0.47003600000000	0.00000000000000	-0.06389800000000	0.00000000000000	31.07503000000000	0.00000000000000	0.00000000000000	9.27524400000000	0.00000000000000	
16.09993300000000	-54.17928600000000	763.71259699999996	52.58352900000000	0.19662800000000	0.00000000000000	0.11044600000000	-13.18467900000000	97.11638300000000	11.41201100000000	0.47059600000000	0.00000000000000	-0.06444300000000	0.00000000000000	30.87602900000000	0.00000000000000	0.00000000000000	9.32675100000000	0.00000000000000	
